<svg xmlns="http://www.w3.org/2000/svg" viewBox="0 0 1024 768" xml:space="preserve"><path style="font-variant-ligatures:none" d="m321.28 374.02-21.763 38.958.12 13.106h21.884zm-97.64 52.06h22.004v-11.66l-22-39.32zm78.04-84.16-28.86 48.57-29.58-48.57h-19.6l22.004 40.761 21.523 35.11h10.581l21.643-36.312 21.282-39.559zm80.01 80.2c7.094 3.848 15.15 5.651 24.048 5.651 8.898 0 16.834-1.803 23.928-5.651 7.094-3.727 12.625-8.898 16.713-15.631 4.088-6.613 6.132-14.068 6.132-22.485 0-8.297-2.044-15.751-6.132-22.485-4.088-6.613-9.62-11.784-16.713-15.631-7.094-3.727-15.03-5.651-23.928-5.651-8.898 0-16.954 1.924-24.048 5.651-7.094 3.848-12.625 9.018-16.713 15.631-4.088 6.733-6.012 14.188-6.012 22.485 0 8.417 1.924 15.872 6.012 22.485 4.088 6.733 9.62 11.904 16.713 15.631zm35.59-17.08c-3.487 2.044-7.335 3.006-11.543 3.006-4.329 0-8.176-.962-11.543-3.006-3.487-1.924-6.253-4.81-8.176-8.417-2.044-3.607-3.006-7.815-3.006-12.625 0-4.69.962-8.898 3.006-12.505 1.923-3.607 4.69-6.493 8.176-8.537 3.367-1.924 7.214-3.006 11.543-3.006 4.208 0 8.056 1.082 11.543 3.006 3.367 2.044 6.132 4.93 8.176 8.537 1.924 3.607 3.006 7.816 3.006 12.505 0 4.81-1.082 9.018-3.006 12.625-2.044 3.607-4.81 6.493-8.176 8.417zm153.68-43.28c-3.968-6.253-9.499-11.182-16.593-14.669-7.214-3.367-15.391-5.17-24.529-5.17h-39.799v18.998h38.838c7.214 0 12.986 2.044 17.315 6.132 4.329 4.208 6.613 9.86 6.613 16.954 0 7.214-2.284 12.866-6.613 16.954-4.329 4.088-10.1 6.132-17.315 6.132h-15.03v-22.37h-23.82v41.36h39.799c9.138 0 17.315-1.683 24.529-5.17 7.094-3.367 12.625-8.297 16.593-14.67 3.848-6.252 5.892-13.706 5.892-22.243 0-8.417-2.044-15.872-5.892-22.244zm110.2-19.84h-66.733v18.397h66.733zm0 32.585h-66.733v17.796h66.733zm-66.733 33.186v18.39h66.733v-18.397zM745.29 350.81l-6.012-8.898h-26.814l18.637 26.453zm35.23 47.735-13.948 18.036 6.373 9.499h27.415zm17.91-56.62h-25.731l-61.563 84.168h27.174z" fill="#cfb968"/></svg>